<svg width="15pt" height="15pt" viewBox="0 0 15 15" version="1.1">
<g>
<path d="M 14.980469 4.410156 C 14.945312 3.613281 14.816406 3.0625 14.632812 2.589844 C 14.441406 2.085938 14.148438 1.632812 13.765625 1.257812 C 13.390625 0.878906 12.933594 0.582031 12.4375 0.394531 C 11.960938 0.210938 11.414062 0.0820312 10.617188 0.046875 C 9.816406 0.0078125 9.5625 0 7.523438 0 C 5.488281 0 5.234375 0.0078125 4.433594 0.0429688 C 3.636719 0.078125 3.089844 0.207031 2.617188 0.390625 C 2.113281 0.582031 1.660156 0.875 1.285156 1.257812 C 0.90625 1.632812 0.609375 2.089844 0.421875 2.585938 C 0.238281 3.0625 0.109375 3.609375 0.0742188 4.40625 C 0.0351562 5.207031 0.0273438 5.460938 0.0273438 7.5 C 0.0273438 9.535156 0.0351562 9.789062 0.0703125 10.589844 C 0.105469 11.386719 0.234375 11.933594 0.417969 12.40625 C 0.609375 12.910156 0.90625 13.363281 1.285156 13.738281 C 1.660156 14.117188 2.113281 14.414062 2.613281 14.601562 C 3.089844 14.785156 3.636719 14.914062 4.433594 14.949219 C 5.230469 14.984375 5.484375 14.992188 7.523438 14.992188 C 9.558594 14.992188 9.8125 14.984375 10.613281 14.949219 C 11.410156 14.914062 11.957031 14.785156 12.429688 14.601562 C 13.4375 14.210938 14.234375 13.414062 14.625 12.40625 C 14.808594 11.929688 14.9375 11.386719 14.972656 10.589844 C 15.007812 9.789062 15.015625 9.535156 15.015625 7.5 C 15.015625 5.460938 15.015625 5.207031 14.980469 4.410156 Z M 13.628906 10.53125 C 13.597656 11.261719 13.472656 11.65625 13.371094 11.921875 C 13.121094 12.574219 12.601562 13.09375 11.949219 13.34375 C 11.683594 13.449219 11.285156 13.570312 10.554688 13.601562 C 9.765625 13.636719 9.527344 13.648438 7.527344 13.648438 C 5.527344 13.648438 5.285156 13.636719 4.5 13.601562 C 3.765625 13.570312 3.371094 13.449219 3.109375 13.34375 C 2.78125 13.226562 2.488281 13.035156 2.246094 12.785156 C 1.996094 12.542969 1.808594 12.25 1.6875 11.925781 C 1.585938 11.660156 1.460938 11.261719 1.429688 10.53125 C 1.394531 9.742188 1.386719 9.503906 1.386719 7.503906 C 1.386719 5.503906 1.394531 5.261719 1.429688 4.476562 C 1.460938 3.742188 1.585938 3.347656 1.6875 3.085938 C 1.808594 2.757812 1.996094 2.464844 2.25 2.222656 C 2.492188 1.972656 2.785156 1.785156 3.109375 1.664062 C 3.375 1.5625 3.773438 1.4375 4.503906 1.40625 C 5.292969 1.371094 5.53125 1.363281 7.53125 1.363281 C 9.535156 1.363281 9.769531 1.371094 10.558594 1.40625 C 11.292969 1.4375 11.6875 1.5625 11.949219 1.664062 C 12.277344 1.785156 12.570312 1.972656 12.8125 2.222656 C 13.0625 2.464844 13.25 2.757812 13.371094 3.085938 C 13.472656 3.347656 13.597656 3.746094 13.628906 4.476562 C 13.664062 5.265625 13.671875 5.503906 13.671875 7.503906 C 13.671875 9.503906 13.664062 9.738281 13.628906 10.53125 Z M 13.628906 10.53125 "/>
<path d="M 7.523438 3.648438 C 5.398438 3.648438 3.671875 5.371094 3.671875 7.5 C 3.671875 9.625 5.398438 11.351562 7.523438 11.351562 C 9.652344 11.351562 11.375 9.625 11.375 7.5 C 11.375 5.371094 9.652344 3.648438 7.523438 3.648438 Z M 7.523438 9.996094 C 6.144531 9.996094 5.027344 8.878906 5.027344 7.5 C 5.027344 6.117188 6.144531 5 7.523438 5 C 8.90625 5 10.023438 6.117188 10.023438 7.5 C 10.023438 8.878906 8.90625 9.996094 7.523438 9.996094 Z M 7.523438 9.996094 "/>
<path d="M 12.429688 3.496094 C 12.429688 3.992188 12.027344 4.394531 11.527344 4.394531 C 11.03125 4.394531 10.628906 3.992188 10.628906 3.496094 C 10.628906 2.996094 11.03125 2.59375 11.527344 2.59375 C 12.027344 2.59375 12.429688 2.996094 12.429688 3.496094 Z M 12.429688 3.496094 "/>
</g>
</svg>
